<svg width="7" height="16" viewBox="0 0 7 16" fill="none" xmlns="http://www.w3.org/2000/svg">
<g clip-path="url(#clip0_0_1421)">
<path fill-rule="evenodd" clip-rule="evenodd" d="M0.42334 7.9999C0.42334 7.86729 0.445648 7.74011 0.485357 7.64635C0.525066 7.55258 0.578923 7.4999 0.63508 7.4999H5.62918L4.29649 4.3539C4.25673 4.26001 4.23439 4.13267 4.23439 3.9999C4.23439 3.86712 4.25673 3.73979 4.29649 3.6459C4.33625 3.55201 4.39017 3.49927 4.4464 3.49927C4.50263 3.49927 4.55655 3.55201 4.59631 3.6459L6.29023 7.6459C6.30995 7.69234 6.3256 7.74752 6.33627 7.80827C6.34695 7.86901 6.35244 7.93413 6.35244 7.9999C6.35244 8.06567 6.34695 8.13079 6.33627 8.19153C6.3256 8.25228 6.30995 8.30745 6.29023 8.3539L4.59631 12.3539C4.55655 12.4478 4.50263 12.5005 4.4464 12.5005C4.39017 12.5005 4.33625 12.4478 4.29649 12.3539C4.25673 12.26 4.23439 12.1327 4.23439 11.9999C4.23439 11.8671 4.25673 11.7398 4.29649 11.6459L5.62918 8.4999H0.63508C0.578923 8.4999 0.525066 8.44722 0.485357 8.35345C0.445648 8.25968 0.42334 8.13251 0.42334 7.9999Z" fill="white"/>
</g>
<defs>
<clipPath id="clip0_0_1421">
<rect width="6.77568" height="16" fill="white"/>
</clipPath>
</defs>
</svg>
