<svg width="24" height="24" viewBox="0 0 24 24" fill="none" xmlns="http://www.w3.org/2000/svg">
<path d="M7.20005 4.80002C7.20005 4.1635 7.45291 3.55306 7.90299 3.10297C8.35308 2.65288 8.96353 2.40002 9.60005 2.40002H16.8C17.4366 2.40002 18.047 2.65288 18.4971 3.10297C18.9472 3.55306 19.2 4.1635 19.2 4.80002V16.8C19.2 17.4365 18.9472 18.047 18.4971 18.4971C18.047 18.9472 17.4366 19.2 16.8 19.2H9.60005C8.96353 19.2 8.35308 18.9472 7.90299 18.4971C7.45291 18.047 7.20005 17.4365 7.20005 16.8V4.80002ZM4.80005 7.20002C4.80006 6.77875 4.91096 6.36489 5.1216 6.00006C5.33225 5.63522 5.63521 5.33226 6.00005 5.12162V17.4C6.00005 18.1957 6.31612 18.9587 6.87873 19.5213C7.44134 20.084 8.2044 20.4 9.00005 20.4H16.4784C16.2678 20.7649 15.9648 21.0678 15.6 21.2785C15.2352 21.4891 14.8213 21.6 14.4 21.6H9.00005C7.88614 21.6 6.81785 21.1575 6.0302 20.3699C5.24255 19.5822 4.80005 18.5139 4.80005 17.4V7.20002Z" fill="#101919"/>
</svg>
