<svg width="18" height="18" viewBox="0 0 18 18" fill="none" xmlns="http://www.w3.org/2000/svg">
<path d="M1.84062 13.9094C2.05158 14.1203 2.33768 14.2388 2.63599 14.2388C2.9343 14.2388 3.2204 14.1203 3.43137 13.9094L9.00012 8.34063L14.5689 13.9094C14.781 14.1143 15.0652 14.2277 15.3602 14.2251C15.6552 14.2226 15.9373 14.1043 16.1459 13.8957C16.3545 13.6871 16.4728 13.4049 16.4754 13.11C16.4779 12.815 16.3645 12.5308 16.1596 12.3186L9.79549 5.95451C9.58452 5.7436 9.29842 5.62512 9.00012 5.62512C8.70181 5.62512 8.41571 5.7436 8.20474 5.95451L1.84062 12.3186C1.62971 12.5296 1.51123 12.8157 1.51123 13.114C1.51123 13.4123 1.62971 13.6984 1.84062 13.9094Z" fill="#2C2C2B"/>
</svg>
