<svg width="32" height="32" viewBox="0 0 32 32" fill="none" xmlns="http://www.w3.org/2000/svg">
<rect x="0.5" y="0.5" width="31" height="31" rx="15.5" stroke="#2C2C2B"/>
<path fill-rule="evenodd" clip-rule="evenodd" d="M23 15.9999C23 15.8673 22.9473 15.7401 22.8536 15.6463C22.7598 15.5526 22.6326 15.4999 22.5 15.4999H10.707L13.854 12.3539C13.9479 12.26 14.0006 12.1327 14.0006 11.9999C14.0006 11.8671 13.9479 11.7398 13.854 11.6459C13.7601 11.552 13.6328 11.4993 13.5 11.4993C13.3672 11.4993 13.2399 11.552 13.146 11.6459L9.146 15.6459C9.09943 15.6923 9.06249 15.7475 9.03729 15.8083C9.01208 15.869 8.9991 15.9341 8.9991 15.9999C8.9991 16.0657 9.01208 16.1308 9.03729 16.1915C9.06249 16.2523 9.09943 16.3075 9.146 16.3539L13.146 20.3539C13.2399 20.4478 13.3672 20.5005 13.5 20.5005C13.6328 20.5005 13.7601 20.4478 13.854 20.3539C13.9479 20.26 14.0006 20.1327 14.0006 19.9999C14.0006 19.8671 13.9479 19.7398 13.854 19.6459L10.707 16.4999H22.5C22.6326 16.4999 22.7598 16.4472 22.8536 16.3535C22.9473 16.2597 23 16.1325 23 15.9999Z" fill="#2C2C2B"/>
</svg>
