<svg width="16" height="8" viewBox="0 0 16 8" fill="none" xmlns="http://www.w3.org/2000/svg">
<path d="M0.5 3.18188C0.223858 3.18188 4.02352e-08 3.40574 0 3.68188C-4.02352e-08 3.95803 0.223858 4.18188 0.5 4.18188L0.5 3.18188ZM15.8536 4.03544C16.0488 3.84018 16.0488 3.5236 15.8536 3.32833L12.6716 0.146353C12.4763 -0.0489096 12.1597 -0.0489096 11.9645 0.146353C11.7692 0.341615 11.7692 0.658197 11.9645 0.853459L14.7929 3.68189L11.9645 6.51031C11.7692 6.70558 11.7692 7.02216 11.9645 7.21742C12.1597 7.41268 12.4763 7.41268 12.6716 7.21742L15.8536 4.03544ZM0.5 4.18188L15.5 4.18189L15.5 3.18189L0.5 3.18188L0.5 4.18188Z" fill="white"/>
</svg>
