<svg width="24" height="24" viewBox="0 0 24 24" fill="none" xmlns="http://www.w3.org/2000/svg">
<mask id="mask0_0_2452" style="mask-type:alpha" maskUnits="userSpaceOnUse" x="0" y="0" width="24" height="24">
<rect width="24" height="24" fill="#D9D9D9"/>
</mask>
<g mask="url(#mask0_0_2452)">
<path d="M6.54545 13.1555C8.35636 13.1555 9.81818 11.8453 9.81818 10.2221C9.81818 8.59903 8.35636 7.28881 6.54545 7.28881C4.73455 7.28881 3.27273 8.59903 3.27273 10.2221C3.27273 11.8453 4.73455 13.1555 6.54545 13.1555ZM19.6364 7.28881H13.0909C11.8909 7.28881 10.9091 8.16881 10.9091 9.24436V14.1333H2.18182V6.31103C2.18182 5.77325 1.69091 5.33325 1.09091 5.33325C0.490909 5.33325 0 5.77325 0 6.31103V19.0221C0 19.5599 0.490909 19.9999 1.09091 19.9999C1.69091 19.9999 2.18182 19.5599 2.18182 19.0221V17.0666H21.8182V19.0221C21.8182 19.5599 22.3091 19.9999 22.9091 19.9999C23.5091 19.9999 24 19.5599 24 19.0221V11.1999C24 9.03903 22.0473 7.28881 19.6364 7.28881Z" fill="#101919"/>
</g>
</svg>
