<svg width="16" height="16" viewBox="0 0 16 16" fill="none" xmlns="http://www.w3.org/2000/svg">
<path fill-rule="evenodd" clip-rule="evenodd" d="M15 7.9999C15 7.86729 14.9473 7.74011 14.8536 7.64635C14.7598 7.55258 14.6326 7.4999 14.5 7.4999H2.707L5.854 4.3539C5.94789 4.26001 6.00063 4.13267 6.00063 3.9999C6.00063 3.86712 5.94789 3.73979 5.854 3.6459C5.76011 3.55201 5.63277 3.49927 5.5 3.49927C5.36722 3.49927 5.23989 3.55201 5.146 3.6459L1.146 7.6459C1.09943 7.69234 1.06249 7.74752 1.03729 7.80827C1.01208 7.86901 0.999104 7.93413 0.999104 7.9999C0.999104 8.06567 1.01208 8.13079 1.03729 8.19153C1.06249 8.25228 1.09943 8.30745 1.146 8.3539L5.146 12.3539C5.23989 12.4478 5.36722 12.5005 5.5 12.5005C5.63277 12.5005 5.76011 12.4478 5.854 12.3539C5.94789 12.26 6.00063 12.1327 6.00063 11.9999C6.00063 11.8671 5.94789 11.7398 5.854 11.6459L2.707 8.4999H14.5C14.6326 8.4999 14.7598 8.44722 14.8536 8.35345C14.9473 8.25968 15 8.13251 15 7.9999Z" fill="#2C2C2B"/>
</svg>
