<svg width="22" height="26" viewBox="0 0 22 26" fill="none" xmlns="http://www.w3.org/2000/svg">
<g clip-path="url(#clip0_0_711)">
<path d="M9 26C9.6193 26.0008 10.2235 25.8086 10.7285 25.4502C11.2335 25.0917 11.6143 24.5849 11.818 24H6.182C6.38566 24.5849 6.76648 25.0917 7.27151 25.4502C7.77654 25.8086 8.3807 26.0008 9 26ZM16 18.586V14C16 10.783 13.815 8.073 10.855 7.258C10.562 6.52 9.846 6 9 6C8.154 6 7.438 6.52 7.145 7.258C4.185 8.074 2 10.783 2 14V18.586L0.293001 20.293C0.199958 20.3857 0.126171 20.4959 0.0758854 20.6172C0.0256001 20.7386 -0.000189449 20.8687 1.04767e-06 21V22C1.04767e-06 22.2652 0.105358 22.5196 0.292894 22.7071C0.480431 22.8946 0.734785 23 1 23H17C17.2652 23 17.5196 22.8946 17.7071 22.7071C17.8946 22.5196 18 22.2652 18 22V21C18.0002 20.8687 17.9744 20.7386 17.9241 20.6172C17.8738 20.4959 17.8 20.3857 17.707 20.293L16 18.586Z" fill="#2C2C2B"/>
<circle cx="18" cy="4" r="4" fill="#F3B51B"/>
</g>
<defs>
<clipPath id="clip0_0_711">
<rect width="22" height="26" fill="white"/>
</clipPath>
</defs>
</svg>
