<svg width="18" height="18" viewBox="0 0 18 18" fill="none" xmlns="http://www.w3.org/2000/svg">
<path d="M1.84049 12.0455C2.05146 12.2564 2.33756 12.3749 2.63587 12.3749C2.93418 12.3749 3.22027 12.2564 3.43124 12.0455L8.99999 6.47674L14.5687 12.0455C14.7809 12.2504 15.0651 12.3638 15.3601 12.3612C15.655 12.3587 15.9372 12.2404 16.1458 12.0318C16.3544 11.8232 16.4727 11.541 16.4753 11.2461C16.4778 10.9511 16.3644 10.6669 16.1595 10.4547L9.79537 4.09062C9.5844 3.87971 9.2983 3.76123 8.99999 3.76123C8.70168 3.76123 8.41559 3.87971 8.20462 4.09062L1.84049 10.4547C1.62959 10.6657 1.51111 10.9518 1.51111 11.2501C1.51111 11.5484 1.62959 11.8345 1.84049 12.0455Z" fill="white"/>
</svg>
