<svg width="12" height="12" viewBox="0 0 12 12" fill="none" xmlns="http://www.w3.org/2000/svg">
<path d="M3.9375 6C4.48451 6 5.00911 5.7827 5.39591 5.39591C5.7827 5.00911 6 4.48451 6 3.9375C6 3.39049 5.7827 2.86589 5.39591 2.47909C5.00911 2.0923 4.48451 1.875 3.9375 1.875C3.39049 1.875 2.86589 2.0923 2.47909 2.47909C2.0923 2.86589 1.875 3.39049 1.875 3.9375C1.875 4.48451 2.0923 5.00911 2.47909 5.39591C2.86589 5.7827 3.39049 6 3.9375 6ZM8.625 6C9.02282 6 9.40436 5.84196 9.68566 5.56066C9.96696 5.27936 10.125 4.89782 10.125 4.5C10.125 4.10218 9.96696 3.72064 9.68566 3.43934C9.40436 3.15804 9.02282 3 8.625 3C8.22718 3 7.84564 3.15804 7.56434 3.43934C7.28304 3.72064 7.125 4.10218 7.125 4.5C7.125 4.89782 7.28304 5.27936 7.56434 5.56066C7.84564 5.84196 8.22718 6 8.625 6ZM1.875 6.75C1.57663 6.75 1.29048 6.86853 1.0795 7.0795C0.868526 7.29048 0.75 7.57663 0.75 7.875V7.93125C0.75 7.93125 0.75 10.125 3.9375 10.125C7.125 10.125 7.125 7.93125 7.125 7.93125V7.875C7.125 7.57663 7.00647 7.29048 6.7955 7.0795C6.58452 6.86853 6.29837 6.75 6 6.75H1.875ZM8.625 9.375C8.079 9.375 7.647 9.30075 7.30463 9.18262C7.46663 8.92013 7.55963 8.667 7.61212 8.46262C7.6504 8.31575 7.67463 8.16558 7.6845 8.01412C7.68525 7.99913 7.686 7.98562 7.686 7.974L7.68637 7.95825V7.875C7.68703 7.45985 7.53409 7.05914 7.257 6.75H10.3474C10.4659 6.74995 10.5833 6.77325 10.6928 6.81857C10.8023 6.86389 10.9018 6.93034 10.9856 7.01413C11.0694 7.09792 11.1359 7.1974 11.1813 7.30689C11.2267 7.41638 11.25 7.53373 11.25 7.65225C11.25 7.65225 11.25 9.375 8.625 9.375Z" fill="#05221E"/>
</svg>
