<svg width="18" height="20" viewBox="0 0 18 20" fill="none" xmlns="http://www.w3.org/2000/svg">
<path d="M8.5425 8.65844L5.625 11.8976L2.7075 8.65844C2.1308 8.01736 1.73813 7.20069 1.57912 6.31167C1.42011 5.42265 1.50192 4.5012 1.81418 3.66383C2.12645 2.82646 2.65517 2.11077 3.33348 1.60724C4.01179 1.10371 4.80924 0.834961 5.625 0.834961C6.44077 0.834961 7.23822 1.10371 7.91653 1.60724C8.59484 2.11077 9.12355 2.82646 9.43582 3.66383C9.74809 4.5012 9.82989 5.42265 9.67088 6.31167C9.51188 7.20069 9.1192 8.01736 8.5425 8.65844ZM5.625 7.08344C6.02283 7.08344 6.40436 6.90784 6.68566 6.59528C6.96697 6.28272 7.125 5.8588 7.125 5.41677C7.125 4.97475 6.96697 4.55082 6.68566 4.23826C6.40436 3.9257 6.02283 3.75011 5.625 3.75011C5.22718 3.75011 4.84565 3.9257 4.56434 4.23826C4.28304 4.55082 4.125 4.97475 4.125 5.41677C4.125 5.8588 4.28304 6.28272 4.56434 6.59528C4.84565 6.90784 5.22718 7.08344 5.625 7.08344ZM15.2925 16.1584L12.375 19.3984L9.4575 16.1576C8.8808 15.5165 8.48813 14.6999 8.32912 13.8108C8.17011 12.9218 8.25192 12.0004 8.56418 11.163C8.87645 10.3256 9.40517 9.60994 10.0835 9.10641C10.7618 8.60288 11.5592 8.33413 12.375 8.33413C13.1908 8.33413 13.9882 8.60288 14.6665 9.10641C15.3448 9.60994 15.8736 10.3256 16.1858 11.163C16.4981 12.0004 16.5799 12.9218 16.4209 13.8108C16.2619 14.6999 15.8692 15.5165 15.2925 16.1576V16.1584ZM12.375 14.5834C12.7728 14.5834 13.1544 14.4078 13.4357 14.0953C13.717 13.7827 13.875 13.3588 13.875 12.9168C13.875 12.4747 13.717 12.0508 13.4357 11.7383C13.1544 11.4257 12.7728 11.2501 12.375 11.2501C11.9772 11.2501 11.5956 11.4257 11.3143 11.7383C11.033 12.0508 10.875 12.4747 10.875 12.9168C10.875 13.3588 11.033 13.7827 11.3143 14.0953C11.5956 14.4078 11.9772 14.5834 12.375 14.5834Z" fill="white"/>
</svg>
