<svg width="16" height="16" viewBox="0 0 16 16" fill="none" xmlns="http://www.w3.org/2000/svg">
<path d="M3.34117 1.34131L1.34117 3.34131L2.86584 4.86664L4.86584 2.86664L3.34117 1.34131ZM10.6665 10.6666H8.6665L3.8085 5.80864L5.8085 3.80864L10.6665 8.66664V10.6666Z" fill="#2C2C2B"/>
<path d="M3.33333 12.6667H10.5613C10.5787 12.6667 10.5967 12.6733 10.614 12.6733C10.636 12.6733 10.658 12.6673 10.6807 12.6667H12.6667V3.33333H8.102L6.76867 2H12.6667C13.402 2 14 2.59733 14 3.33333V12.6667C14 13.4027 13.402 14 12.6667 14H3.33333C2.97971 14 2.64057 13.8595 2.39052 13.6095C2.14048 13.3594 2 13.0203 2 12.6667V6.888L3.33333 8.22133V12.6667Z" fill="#2C2C2B"/>
</svg>
