<svg width="24" height="24" viewBox="0 0 24 24" fill="none" xmlns="http://www.w3.org/2000/svg">
<mask id="mask0_0_2338" style="mask-type:alpha" maskUnits="userSpaceOnUse" x="0" y="0" width="24" height="24">
<rect width="24" height="24" fill="#D9D9D9"/>
</mask>
<g mask="url(#mask0_0_2338)">
<path d="M12 18L13.2 15.6V9.4296C15.2652 8.8932 16.8 7.0296 16.8 4.8C16.8 2.1528 14.6472 0 12 0C9.35275 0 7.19995 2.1528 7.19995 4.8C7.19995 7.0296 8.73475 8.8932 10.8 9.4296V15.6L12 18Z" fill="white"/>
<path d="M17.1204 10.2756L16.4808 12.5892C19.59 13.4484 21.6 15.1008 21.6 16.8C21.6 19.0704 17.658 21.6 12 21.6C6.342 21.6 2.4 19.0704 2.4 16.8C2.4 15.1008 4.41 13.4484 7.5204 12.588L6.8808 10.2744C2.6364 11.448 0 13.9476 0 16.8C0 20.8368 5.2716 24 12 24C18.7284 24 24 20.8368 24 16.8C24 13.9476 21.3636 11.448 17.1204 10.2756Z" fill="white"/>
</g>
</svg>
