<svg width="26" height="23" viewBox="0 0 26 23" fill="none" xmlns="http://www.w3.org/2000/svg">
<path d="M25.7008 12.4122C25.7008 13.5173 25.5512 14.5893 25.2702 15.6095C24.5121 18.366 22.7956 20.7461 20.4866 22.3958C20.5214 22.3539 20.5568 22.3126 20.5911 22.2719C20.9179 21.8819 21.219 21.4766 21.4627 21.0329C22.2129 19.6676 22.0724 18.451 21.0101 17.2981C20.0706 16.2791 18.8465 15.6549 17.6009 15.0714C16.2027 14.4164 14.7519 13.8783 13.3085 13.3243C12.7673 13.1172 12.2432 12.8753 11.7917 12.5142C10.9842 11.867 10.9787 11.2003 11.7643 10.5341C11.8455 10.4651 11.9255 10.3943 12.0062 10.3241C12.0733 10.2061 12.1845 10.1553 12.3165 10.1376C12.5559 10.009 12.796 9.8798 13.036 9.75059C13.474 9.64616 13.8338 9.32224 14.3164 9.3305C14.4111 9.33168 14.51 9.23904 14.4685 9.10511L14.4679 9.1057C14.1319 9.05673 13.7959 9.05437 13.46 9.11219C13.4123 9.11632 13.3653 9.12045 13.317 9.12399C13.168 9.22134 12.9835 9.11691 12.8314 9.20129L12.84 9.19774C12.7001 9.32932 12.5077 9.20305 12.358 9.28919L12.3666 9.28448C12.2334 9.42903 12.0312 9.28211 11.8889 9.3895C10.1993 9.75118 8.61288 10.3377 7.30285 11.4658C6.06355 12.5331 6.05696 13.7586 7.24885 14.8879C7.94033 15.5428 8.78209 15.9877 9.61712 16.4402C10.2634 16.7901 10.881 17.1754 11.3977 17.6975C12.3061 18.615 12.3201 19.6003 11.3947 20.5036C10.341 21.532 8.99221 22.0831 7.62085 22.5734C7.13205 22.7481 6.63848 22.8891 6.14101 23C3.38705 21.3686 1.31846 18.7625 0.449834 15.6791C0.156382 14.6383 0 13.5426 0 12.4122C0 6.64297 4.07486 1.79304 9.59696 0.401188C10.636 0.13922 11.7264 -2.30123e-05 12.8504 -2.30123e-05C14.0049 -2.30123e-05 15.1233 0.146889 16.1868 0.422427C21.6668 1.84142 25.7008 6.67188 25.7008 12.4122Z" fill="#F3B51B"/>
</svg>
