<svg width="18" height="18" viewBox="0 0 18 18" fill="none" xmlns="http://www.w3.org/2000/svg">
<path d="M15.2577 12.8672H14.022C13.9376 12.8672 13.8585 12.9041 13.8058 12.9692C13.6827 13.1186 13.5509 13.2627 13.412 13.3998C12.844 13.9684 12.1713 14.4214 11.431 14.734C10.6639 15.058 9.83955 15.2242 9.00693 15.2227C8.16494 15.2227 7.34932 15.0574 6.58291 14.734C5.84257 14.4214 5.16982 13.9684 4.60186 13.3998C4.03288 12.8332 3.57919 12.1616 3.26592 11.4223C2.94072 10.6559 2.77725 9.84202 2.77725 9.00003C2.77725 8.15803 2.94248 7.34417 3.26592 6.57776C3.57881 5.83772 4.02881 5.17151 4.60186 4.60022C5.1749 4.02893 5.84111 3.57893 6.58291 3.26604C7.34932 2.9426 8.16494 2.77737 9.00693 2.77737C9.84893 2.77737 10.6645 2.94085 11.431 3.26604C12.1728 3.57893 12.839 4.02893 13.412 4.60022C13.5509 4.73909 13.681 4.88323 13.8058 5.03089C13.8585 5.09593 13.9394 5.13284 14.022 5.13284H15.2577C15.3685 5.13284 15.437 5.00979 15.3755 4.91663C14.0272 2.82132 11.6683 1.4344 8.9876 1.44143C4.77588 1.45198 1.39912 4.87093 1.44131 9.07737C1.4835 13.217 4.85498 16.5586 9.00693 16.5586C11.6806 16.5586 14.029 15.1735 15.3755 13.0834C15.4353 12.9903 15.3685 12.8672 15.2577 12.8672ZM16.8204 8.88929L14.3261 6.92054C14.2329 6.84671 14.0976 6.9135 14.0976 7.03128V8.36721H8.57803C8.50068 8.36721 8.4374 8.4305 8.4374 8.50784V9.49221C8.4374 9.56956 8.50068 9.63284 8.57803 9.63284H14.0976V10.9688C14.0976 11.0866 14.2347 11.1533 14.3261 11.0795L16.8204 9.11077C16.8372 9.09761 16.8508 9.08081 16.8602 9.06162C16.8695 9.04243 16.8744 9.02137 16.8744 9.00003C16.8744 8.97868 16.8695 8.95762 16.8602 8.93843C16.8508 8.91925 16.8372 8.90244 16.8204 8.88929Z" fill="white"/>
</svg>
