<svg width="12" height="12" viewBox="0 0 12 12" fill="none" xmlns="http://www.w3.org/2000/svg">
<g clip-path="url(#clip0_0_2382)">
<path d="M10.49 1.27995C10.1696 0.963285 9.74846 0.768879 9.29965 0.730514C8.85084 0.692149 8.40278 0.812251 8.03333 1.06995C9.22092 1.5644 10.1911 2.46948 10.7667 3.61995C10.9888 3.25514 11.0823 2.82638 11.0322 2.4022C10.982 1.97802 10.7911 1.58288 10.49 1.27995Z" fill="#2C2C2B"/>
<path d="M3.80667 1.1433C3.43875 0.851089 2.9766 0.703662 2.50743 0.72884C2.03826 0.754017 1.59454 0.950058 1.26 1.27996C0.928231 1.61393 0.731735 2.05883 0.708349 2.52901C0.684964 2.99918 0.836342 3.46139 1.13334 3.82663C1.66818 2.63664 2.61869 1.68258 3.80667 1.1433Z" fill="#2C2C2B"/>
<path d="M5.99998 1.33337C5.07861 1.33528 4.17841 1.60988 3.41286 2.12259C2.6473 2.63529 2.05065 3.36313 1.6981 4.21439C1.34554 5.06565 1.25287 6.00223 1.43176 6.90607C1.61065 7.80992 2.05309 8.64058 2.70332 9.29337L1.85332 10.1434C1.82246 10.1749 1.79811 10.2122 1.78166 10.2531C1.76521 10.294 1.75698 10.3378 1.75744 10.3819C1.75791 10.426 1.76705 10.4696 1.78436 10.5102C1.80167 10.5507 1.8268 10.5875 1.85832 10.6184C1.88984 10.6492 1.92712 10.6736 1.96805 10.69C2.00898 10.7065 2.05275 10.7147 2.09685 10.7143C2.14096 10.7138 2.18455 10.7046 2.22512 10.6873C2.26569 10.67 2.30246 10.6449 2.33332 10.6134L3.21998 9.72671C4.03083 10.3403 5.021 10.6701 6.03783 10.6653C7.05466 10.6605 8.04166 10.3213 8.84665 9.70004L9.75998 10.6134C9.82375 10.668 9.90578 10.6965 9.98967 10.6933C10.0736 10.69 10.1531 10.6553 10.2125 10.5959C10.2719 10.5365 10.3066 10.457 10.3099 10.3731C10.3131 10.2892 10.2846 10.2071 10.23 10.1434L9.33332 9.26004C9.97441 8.60338 10.4077 7.77227 10.5789 6.87067C10.7501 5.96907 10.6517 5.037 10.2959 4.19105C9.94017 3.34509 9.3429 2.6228 8.5788 2.11452C7.8147 1.60623 6.9177 1.33452 5.99998 1.33337ZM8.48998 7.14337C8.4518 7.22278 8.38372 7.28384 8.30065 7.31319C8.21757 7.34255 8.12625 7.33782 8.04665 7.30004L5.66665 6.14671V3.23004C5.66665 3.14164 5.70177 3.05685 5.76428 2.99434C5.82679 2.93183 5.91158 2.89671 5.99998 2.89671C6.08839 2.89671 6.17318 2.93183 6.23569 2.99434C6.2982 3.05685 6.33332 3.14164 6.33332 3.23004V5.73004L8.33332 6.70004C8.37322 6.71835 8.40911 6.74436 8.43893 6.77657C8.46875 6.80879 8.49192 6.84658 8.50709 6.88777C8.52227 6.92897 8.52916 6.97275 8.52737 7.01661C8.52558 7.06048 8.51514 7.10356 8.49665 7.14337H8.48998Z" fill="#2C2C2B"/>
</g>
<defs>
<clipPath id="clip0_0_2382">
<rect width="12" height="12" fill="white"/>
</clipPath>
</defs>
</svg>
