<svg width="18" height="21" viewBox="0 0 18 21" fill="none" xmlns="http://www.w3.org/2000/svg">
<mask id="mask0_0_2352" style="mask-type:alpha" maskUnits="userSpaceOnUse" x="-3" y="-2" width="25" height="25">
<rect x="-3.00002" y="-2.00001" width="24.0002" height="24.0002" fill="#D9D9D9"/>
</mask>
<g mask="url(#mask0_0_2352)">
<path d="M14.658 0L11.876 2.53302C13.171 2.92421 14.3631 3.5981 15.366 4.50603C18.878 7.70605 18.878 12.8941 15.366 16.0941C12.774 18.4541 8.76794 19.9561 3.3499 20.6001L6.13192 18.0671C4.83686 17.6759 3.64483 17.002 2.6419 16.0941C-0.870125 12.8941 -0.891125 7.72505 2.6419 4.50603C5.23392 2.14601 9.24094 0.644004 14.659 0H14.658ZM9.00394 4.30003C5.13792 4.30003 2.00389 6.98605 2.00389 10.3001C2.00389 13.6141 5.13792 16.3001 9.00394 16.3001C12.87 16.3001 16.004 13.6141 16.004 10.3001C16.004 6.98605 12.87 4.30003 9.00394 4.30003ZM9.00394 6.60005C11.214 6.60005 13.004 8.25706 13.004 10.3001C13.004 12.3431 11.214 14.0001 9.00394 14.0001C6.79393 14.0001 5.00391 12.3431 5.00391 10.3001C5.00391 8.25706 6.79393 6.60005 9.00394 6.60005ZM9.00394 8.60006C7.86593 8.60006 7.00393 9.39706 7.00393 10.3001C7.00393 11.2031 7.86593 12.0001 9.00394 12.0001C10.1419 12.0001 11.004 11.2031 11.004 10.3001C11.004 9.39706 10.1419 8.60006 9.00394 8.60006Z" fill="#3C2D07"/>
</g>
</svg>
