<svg width="12" height="12" viewBox="0 0 12 12" fill="none" xmlns="http://www.w3.org/2000/svg">
<path d="M0.911412 0.0650431L11.6378 5.40257C11.7463 5.45643 11.8378 5.54113 11.9019 5.64686C11.966 5.75259 12 5.87504 12 6.00004C12 6.12504 11.966 6.24749 11.9019 6.35322C11.8378 6.45895 11.7463 6.54365 11.6378 6.59751L0.911412 11.935C0.801451 11.9898 0.678674 12.0106 0.557689 11.9949C0.436704 11.9792 0.322604 11.9276 0.228966 11.8464C0.135328 11.7652 0.0660928 11.6576 0.0294987 11.5366C-0.00709532 11.4156 -0.00950793 11.2862 0.0225481 11.1638L1.0957 7.07051C1.10884 7.02034 1.13588 6.97531 1.17345 6.94103C1.21102 6.90674 1.25745 6.88472 1.30697 6.87771L6.50474 6.14305C6.52646 6.13984 6.54702 6.13083 6.56442 6.11691C6.58181 6.10299 6.59545 6.08462 6.60401 6.0636L6.61317 6.03076C6.61719 6.00119 6.61148 5.97107 6.59697 5.9453C6.58246 5.91953 6.56 5.89962 6.53325 5.88881L6.50525 5.88086L1.31257 5.14621C1.26315 5.1391 1.21682 5.11703 1.17935 5.08276C1.14187 5.04848 1.11491 5.0035 1.10181 4.9534L0.0225481 0.836778C-0.00963775 0.714351 -0.00732335 0.584879 0.0292156 0.463782C0.0657545 0.342685 0.134978 0.235067 0.228641 0.153746C0.322304 0.072425 0.436459 0.0208288 0.55751 0.00510235C0.678561 -0.0106241 0.801405 0.0101823 0.911412 0.0650431Z" fill="white"/>
</svg>
