<svg width="24" height="24" viewBox="0 0 24 24" fill="none" xmlns="http://www.w3.org/2000/svg">
<path d="M10.2 0.545221L1.2 6.71753C0.45 7.23875 0 8.04801 0 8.91213V21.2568C0 22.7655 1.35 24 3 24H21C22.65 24 24 22.7655 24 21.2568V8.91213C24 8.04801 23.55 7.23875 22.8 6.71753L13.8 0.545221C12.735 -0.18174 11.265 -0.18174 10.2 0.545221ZM12.75 12.3412C12.75 13.4796 11.745 14.3986 10.5 14.3986V19.1993C10.5 19.5834 10.17 19.8851 9.75 19.8851C9.33 19.8851 9 19.5834 9 19.1993V14.3986C7.755 14.3986 6.75 13.4796 6.75 12.3412V8.91213C6.75 8.52808 7.08 8.22632 7.5 8.22632C7.92 8.22632 8.25 8.52808 8.25 8.91213V12.3412H9V8.91213C9 8.52808 9.33 8.22632 9.75 8.22632C10.17 8.22632 10.5 8.52808 10.5 8.91213V12.3412H11.25V8.91213C11.25 8.52808 11.58 8.22632 12 8.22632C12.42 8.22632 12.75 8.52808 12.75 8.91213V12.3412ZM15.75 19.8851C15.33 19.8851 15 19.5834 15 19.1993V15.0844H14.25C13.83 15.0844 13.5 14.7827 13.5 14.3986V10.9696C13.5 9.76254 14.355 8.73382 15.54 8.3772C16.005 8.22632 16.5 8.56922 16.5 9.03558V19.1993C16.5 19.5834 16.17 19.8851 15.75 19.8851Z" fill="#101919"/>
</svg>
