<svg width="17" height="17" viewBox="0 0 17 17" fill="none" xmlns="http://www.w3.org/2000/svg">
<path d="M0.691655 7.90043L12.0703 4.08329C12.1852 4.04464 12.3101 4.03979 12.4304 4.06929C12.5506 4.09879 12.6615 4.16143 12.75 4.24997C12.8386 4.33851 12.9012 4.44934 12.9307 4.56963C12.9602 4.68992 12.9553 4.81476 12.9167 4.9297L9.09956 16.3083C9.06049 16.425 8.98824 16.5267 8.89141 16.6013C8.79458 16.6759 8.67725 16.7202 8.55337 16.7289C8.4295 16.7377 8.3043 16.7106 8.19266 16.6508C8.08103 16.591 7.98766 16.5011 7.92368 16.3917L5.78439 12.7321C5.75816 12.6873 5.74542 12.6362 5.74774 12.5853C5.75007 12.5344 5.76737 12.4859 5.79748 12.4459L8.95884 8.24375C8.97195 8.22608 8.98014 8.20514 8.9826 8.18296C8.98506 8.16077 8.98171 8.1381 8.97288 8.11715L8.95611 8.0874C8.93801 8.06361 8.91263 8.04632 8.8841 8.03834C8.85557 8.03037 8.82556 8.03217 8.79895 8.04346L8.77349 8.05767L4.57496 11.2154C4.53492 11.2454 4.48647 11.2626 4.43565 11.2649C4.38483 11.2671 4.33387 11.2543 4.28911 11.2281L0.608689 9.07668C0.499171 9.01276 0.409101 8.91941 0.349206 8.80776C0.289311 8.6961 0.262115 8.57083 0.270857 8.44689C0.2796 8.32294 0.323912 8.20553 0.398517 8.10865C0.473121 8.01177 0.574874 7.93949 0.691655 7.90043Z" fill="#3C2D07"/>
</svg>
