<svg width="24" height="22" viewBox="0 0 24 22" fill="none" xmlns="http://www.w3.org/2000/svg">
<path d="M23.9999 11.6984C23.9999 12.74 23.8602 13.7504 23.5978 14.7119C22.8899 17.3099 21.287 19.5531 19.1308 21.108C19.1633 21.0685 19.1964 21.0296 19.2283 20.9912C19.5335 20.6236 19.8147 20.2416 20.0423 19.8234C20.7428 18.5366 20.6116 17.39 19.6196 16.3034C18.7423 15.343 17.5992 14.7547 16.4361 14.2047C15.1304 13.5874 13.7756 13.0803 12.4277 12.5581C11.9223 12.3629 11.4329 12.135 11.0114 11.7946C10.2573 11.1846 10.2521 10.5562 10.9857 9.9284C11.0616 9.86334 11.1363 9.79661 11.2116 9.73043C11.2743 9.61922 11.3781 9.57139 11.5014 9.55471C11.725 9.43348 11.9491 9.3117 12.1733 9.18992C12.5823 9.09149 12.9183 8.7862 13.3689 8.79398C13.4573 8.79509 13.5498 8.70779 13.511 8.58155L13.5104 8.58211C13.1967 8.53596 12.8829 8.53373 12.5692 8.58823C12.5247 8.59212 12.4808 8.59601 12.4357 8.59935C12.2965 8.6911 12.1243 8.59268 11.9822 8.6722L11.9902 8.66886C11.8596 8.79287 11.6799 8.67387 11.5401 8.75505L11.5481 8.75061C11.4238 8.88685 11.235 8.74838 11.1021 8.84959C9.52427 9.19047 8.04288 9.74322 6.81954 10.8065C5.66227 11.8124 5.65611 12.9674 6.76912 14.0318C7.41484 14.649 8.20089 15.0683 8.98066 15.4948C9.58417 15.8246 10.1609 16.1877 10.6434 16.6798C11.4917 17.5446 11.5048 18.4732 10.6406 19.3246C9.65661 20.2939 8.39711 20.8132 7.1165 21.2753C6.66005 21.4399 6.19915 21.5729 5.7346 21.6774C3.16289 20.1398 1.23121 17.6836 0.420064 14.7775C0.146032 13.7965 0 12.7639 0 11.6984C0 6.26101 3.80519 1.68998 8.96183 0.378169C9.93212 0.131267 10.9503 2.91445e-05 11.9999 2.91445e-05C13.078 2.91445e-05 14.1225 0.138493 15.1156 0.398185C20.2329 1.73557 23.9999 6.28825 23.9999 11.6984Z" fill="white"/>
</svg>
