<svg width="54" height="38" viewBox="0 0 54 38" fill="none" xmlns="http://www.w3.org/2000/svg">
<path d="M29.6745 38V27.1428H37.7675L26.9768 13.5714L16.186 27.1428H24.2791V38H29.6745Z" fill="#2C2C2B"/>
<path d="M13.4884 38H18.8838V32.5714H13.4884C9.02645 32.5714 5.39537 28.918 5.39537 24.4286C5.39537 20.6177 8.62989 16.948 12.6063 16.245L14.1736 15.9681L14.6916 14.4536C16.5881 8.88657 21.2982 5.42857 26.9768 5.42857C34.4144 5.42857 40.4653 11.5167 40.4653 19V21.7143H43.163C46.1385 21.7143 48.5583 24.149 48.5583 27.1429C48.5583 30.1367 46.1385 32.5714 43.163 32.5714H35.0699V38H43.163C49.114 38 53.9537 33.1306 53.9537 27.1429C53.9496 24.7098 53.1353 22.3483 51.6409 20.4354C50.1466 18.5225 48.0583 17.1686 45.7096 16.5897C44.5307 7.24714 36.5806 0 26.9768 0C19.542 0 13.0838 4.37271 10.1352 11.2643C4.34057 13.0069 0 18.5114 0 24.4286C0 31.9119 6.05091 38 13.4884 38Z" fill="#2C2C2B"/>
</svg>
