<svg width="16" height="16" viewBox="0 0 16 16" fill="none" xmlns="http://www.w3.org/2000/svg">
<path d="M7.99995 11.2C6.23264 11.2 4.79995 9.76736 4.79995 8.00005C4.79995 6.23274 6.23264 4.80005 7.99995 4.80005C9.76726 4.80005 11.2 6.23274 11.2 8.00005C11.2 9.76736 9.76726 11.2 7.99995 11.2Z" fill="#F3B51B"/>
<path d="M7.2 1.6552V0H8.8V1.6552C10.2078 1.83495 11.516 2.47694 12.5195 3.48046C13.5231 4.48397 14.1651 5.79224 14.3448 7.2H16V8.8H14.3448C14.1653 10.2079 13.5234 11.5163 12.5198 12.5198C11.5163 13.5234 10.2079 14.1653 8.8 14.3448V16H7.2V14.3448C5.79208 14.1654 4.4836 13.5236 3.48001 12.52C2.47641 11.5164 1.83455 10.2079 1.6552 8.8H0V7.2H1.6552C1.83468 5.79214 2.47659 4.48373 3.48016 3.48016C4.48373 2.47659 5.79214 1.83468 7.2 1.6552ZM8 12.8C10.6472 12.8 12.8 10.6472 12.8 8C12.8 5.3528 10.6472 3.2 8 3.2C5.3528 3.2 3.2 5.3528 3.2 8C3.2 10.6472 5.3528 12.8 8 12.8Z" fill="white"/>
</svg>
