<svg width="18" height="18" viewBox="0 0 18 18" fill="none" xmlns="http://www.w3.org/2000/svg">
<path d="M1.84049 5.95463C2.05146 5.74373 2.33756 5.62525 2.63587 5.62525C2.93418 5.62525 3.22027 5.74373 3.43124 5.95463L8.99999 11.5234L14.5687 5.95463C14.7809 5.7497 15.0651 5.63631 15.3601 5.63887C15.655 5.64144 15.9372 5.75975 16.1458 5.96834C16.3544 6.17692 16.4727 6.45908 16.4753 6.75406C16.4778 7.04903 16.3644 7.3332 16.1595 7.54538L9.79537 13.9095C9.5844 14.1204 9.2983 14.2389 8.99999 14.2389C8.70168 14.2389 8.41559 14.1204 8.20462 13.9095L1.84049 7.54538C1.62959 7.33441 1.51111 7.04832 1.51111 6.75001C1.51111 6.4517 1.62959 6.1656 1.84049 5.95463Z" fill="#101919"/>
</svg>
