<svg width="18" height="18" viewBox="0 0 18 18" fill="none" xmlns="http://www.w3.org/2000/svg">
<path d="M16.1595 5.95451C15.9485 5.7436 15.6624 5.62512 15.3641 5.62512C15.0658 5.62512 14.7797 5.7436 14.5688 5.95451L9.00001 11.5233L3.43126 5.95451C3.21908 5.74958 2.9349 5.63619 2.63993 5.63875C2.34496 5.64132 2.06279 5.75963 1.85421 5.96821C1.64563 6.1768 1.52731 6.45896 1.52475 6.75393C1.52219 7.04891 1.63558 7.33308 1.84051 7.54526L8.20463 13.9094C8.4156 14.1203 8.7017 14.2388 9.00001 14.2388C9.29832 14.2388 9.58441 14.1203 9.79538 13.9094L16.1595 7.54526C16.3704 7.33429 16.4889 7.04819 16.4889 6.74988C16.4889 6.45158 16.3704 6.16548 16.1595 5.95451Z" fill="white"/>
</svg>
