<svg width="12" height="12" viewBox="0 0 12 12" fill="none" xmlns="http://www.w3.org/2000/svg">
<path d="M8.8125 3.75H6.375V7.34461L7.60992 6.10992C7.68082 6.04256 7.77523 6.00557 7.87301 6.00682C7.9708 6.00807 8.06423 6.04747 8.13338 6.11662C8.20253 6.18577 8.24193 6.2792 8.24318 6.37699C8.24443 6.47477 8.20744 6.56918 8.14008 6.64008L6.26508 8.51508C6.19476 8.58535 6.09941 8.62483 6 8.62483C5.90059 8.62483 5.80524 8.58535 5.73492 8.51508L3.85992 6.64008C3.79256 6.56918 3.75557 6.47477 3.75682 6.37699C3.75807 6.2792 3.79747 6.18577 3.86662 6.11662C3.93577 6.04747 4.0292 6.00807 4.12699 6.00682C4.22477 6.00557 4.31918 6.04256 4.39008 6.10992L5.625 7.34461V3.75H3.1875C2.83952 3.75037 2.50589 3.88877 2.25983 4.13483C2.01377 4.38089 1.87537 4.71452 1.875 5.0625V9.9375C1.87537 10.2855 2.01377 10.6191 2.25983 10.8652C2.50589 11.1112 2.83952 11.2496 3.1875 11.25H8.8125C9.16048 11.2496 9.49411 11.1112 9.74017 10.8652C9.98623 10.6191 10.1246 10.2855 10.125 9.9375V5.0625C10.1246 4.71452 9.98623 4.38089 9.74017 4.13483C9.49411 3.88877 9.16048 3.75037 8.8125 3.75ZM6.375 1.125C6.375 1.02554 6.33549 0.930161 6.26517 0.859835C6.19484 0.789509 6.09946 0.75 6 0.75C5.90054 0.75 5.80516 0.789509 5.73484 0.859835C5.66451 0.930161 5.625 1.02554 5.625 1.125V3.75H6.375V1.125Z" fill="#05221E"/>
</svg>
