<svg width="16" height="16" viewBox="0 0 16 16" fill="none" xmlns="http://www.w3.org/2000/svg">
<path d="M15.9998 8.17753C15.9998 7.51976 15.9453 7.03976 15.8275 6.54199H8.16309V9.51084H12.6619C12.5712 10.2486 12.0814 11.3597 10.993 12.1064L10.9777 12.2058L13.4011 14.0455L13.569 14.062C15.1109 12.6664 15.9998 10.6131 15.9998 8.17753Z" fill="#4285F4"/>
<path d="M8.1626 16.0001C10.3666 16.0001 12.2169 15.2889 13.5684 14.0623L10.9925 12.1067C10.3032 12.5778 9.37798 12.9067 8.1626 12.9067C6.0039 12.9067 4.17173 11.5112 3.51861 9.58228L3.42288 9.59024L0.90307 11.5014L0.870117 11.5911C2.2125 14.2045 4.96985 16.0001 8.1626 16.0001Z" fill="#576DD6"/>
<path d="M3.51922 9.58214C3.34689 9.08437 3.24716 8.551 3.24716 7.99992C3.24716 7.44877 3.34689 6.91546 3.51016 6.41769L3.50559 6.31168L0.9542 4.36987L0.870723 4.40879C0.317462 5.49324 0 6.71104 0 7.99992C0 9.2888 0.317462 10.5065 0.870723 11.591L3.51922 9.58214Z" fill="#FBBC05"/>
<path d="M8.16264 3.0933C9.69549 3.0933 10.7295 3.74218 11.3191 4.28444L13.6229 2.07999C12.208 0.791111 10.3667 0 8.16264 0C4.96988 0 2.2125 1.79553 0.870117 4.40884L3.50956 6.41775C4.17175 4.48887 6.00393 3.0933 8.16264 3.0933Z" fill="#EB4335"/>
</svg>
