<svg width="20" height="20" viewBox="0 0 20 20" fill="none" xmlns="http://www.w3.org/2000/svg">
<path d="M10.661 1.91074C10.8173 1.75451 11.0292 1.66675 11.2502 1.66675C11.4711 1.66675 11.6831 1.75451 11.8393 1.91074L14.3393 4.41074C14.4956 4.56701 14.5833 4.77893 14.5833 4.9999C14.5833 5.22087 14.4956 5.4328 14.3393 5.58907L11.8393 8.08907C11.6822 8.24087 11.4717 8.32486 11.2532 8.32296C11.0347 8.32107 10.8257 8.23343 10.6711 8.07892C10.5166 7.92441 10.429 7.7154 10.4271 7.4969C10.4252 7.27841 10.5092 7.06791 10.661 6.91074L11.7385 5.83324H10.4168C7.46016 5.83324 5.00016 8.29324 5.00016 11.2499C5.00016 14.2066 7.46016 16.6666 10.4168 16.6666C13.3735 16.6666 15.8335 14.2066 15.8335 11.2499C15.8335 11.0289 15.9213 10.8169 16.0776 10.6606C16.2339 10.5044 16.4458 10.4166 16.6668 10.4166C16.8878 10.4166 17.0998 10.5044 17.2561 10.6606C17.4124 10.8169 17.5002 11.0289 17.5002 11.2499C17.5002 15.1266 14.2935 18.3332 10.4168 18.3332C6.54016 18.3332 3.3335 15.1266 3.3335 11.2499C3.3335 7.37324 6.54016 4.16657 10.4168 4.16657H11.7385L10.661 3.08907C10.5048 2.9328 10.417 2.72087 10.417 2.4999C10.417 2.27893 10.5048 2.06701 10.661 1.91074Z" fill="#F3B51B"/>
</svg>
