<svg width="16" height="16" viewBox="0 0 16 16" fill="none" xmlns="http://www.w3.org/2000/svg">
<path d="M0.888888 8.808H7.11111V6.4H6.22222C5.24178 6.4 4.44444 5.6824 4.44444 4.8V1.6C4.44444 0.7176 5.24178 0 6.22222 0H9.77778C10.7582 0 11.5556 0.7176 11.5556 1.6V4.8C11.5556 5.6824 10.7582 6.4 9.77778 6.4H8.88889V8.808H15.1111V12.8H16V16H12.4444V12.8H13.3333V10.408H8.88889V12.8H9.77778V16H6.22222V12.8H7.11111V10.408H2.66667V12.8H3.55556V16H0V12.8H0.888888V8.808ZM9.77778 4.8V1.6H6.22222L6.22044 4.8H9.77778Z" fill="#F3B51B"/>
</svg>
