<svg width="24" height="24" viewBox="0 0 24 24" fill="none" xmlns="http://www.w3.org/2000/svg">
<mask id="mask0_0_2397" style="mask-type:alpha" maskUnits="userSpaceOnUse" x="0" y="0" width="24" height="24">
<rect width="24" height="24" fill="#D9D9D9"/>
</mask>
<g mask="url(#mask0_0_2397)">
<path d="M7.71429 17.4444C7.71429 18.3 8.35714 19 9.14286 19H14.8571C15.6429 19 16.2857 18.3 16.2857 17.4444V9.66667C16.2857 8.81111 15.6429 8.11111 14.8571 8.11111H9.14286C8.35714 8.11111 7.71429 8.81111 7.71429 9.66667V17.4444ZM9.85714 9.66667H14.1429C14.5357 9.66667 14.8571 10.0167 14.8571 10.4444V16.6667C14.8571 17.0944 14.5357 17.4444 14.1429 17.4444H9.85714C9.46429 17.4444 9.14286 17.0944 9.14286 16.6667V10.4444C9.14286 10.0167 9.46429 9.66667 9.85714 9.66667ZM14.5 5.77778L13.9929 5.22556C13.8643 5.08556 13.6786 5 13.4929 5H10.5071C10.3214 5 10.1357 5.08556 10.0071 5.22556L9.5 5.77778H7.71429C7.32143 5.77778 7 6.12778 7 6.55556C7 6.98333 7.32143 7.33333 7.71429 7.33333H16.2857C16.6786 7.33333 17 6.98333 17 6.55556C17 6.12778 16.6786 5.77778 16.2857 5.77778H14.5Z" fill="#101919"/>
</g>
</svg>
