<svg width="10" height="14" viewBox="0 0 10 14" fill="none" xmlns="http://www.w3.org/2000/svg">
<path d="M0.714286 12.4444C0.714286 13.3 1.35714 14 2.14286 14H7.85714C8.64286 14 9.28571 13.3 9.28571 12.4444V4.66667C9.28571 3.81111 8.64286 3.11111 7.85714 3.11111H2.14286C1.35714 3.11111 0.714286 3.81111 0.714286 4.66667V12.4444ZM2.85714 4.66667H7.14286C7.53571 4.66667 7.85714 5.01667 7.85714 5.44444V11.6667C7.85714 12.0944 7.53571 12.4444 7.14286 12.4444H2.85714C2.46429 12.4444 2.14286 12.0944 2.14286 11.6667V5.44444C2.14286 5.01667 2.46429 4.66667 2.85714 4.66667ZM7.5 0.777778L6.99286 0.225556C6.86429 0.0855555 6.67857 0 6.49286 0H3.50714C3.32143 0 3.13571 0.0855555 3.00714 0.225556L2.5 0.777778H0.714286C0.321429 0.777778 0 1.12778 0 1.55556C0 1.98333 0.321429 2.33333 0.714286 2.33333H9.28571C9.67857 2.33333 10 1.98333 10 1.55556C10 1.12778 9.67857 0.777778 9.28571 0.777778H7.5Z" fill="#2C2C2B"/>
</svg>
