<svg width="138" height="249" viewBox="0 0 138 249" fill="none" xmlns="http://www.w3.org/2000/svg">
<path d="M134.743 243.851C130.06 239.837 119.289 231.307 113.67 229.3C106.645 226.792 88.0805 243.851 82.5612 245.858C77.042 247.865 76.0385 226.29 71.5227 216.255C67.007 206.22 85.5717 206.22 74.5332 193.174C63.4947 180.129 53.9614 169.592 53.9614 158.554C53.9614 147.515 48.4422 107.375 41.4177 100.852C34.3932 94.3295 11.8144 74.7612 3.78637 68.7402C-4.24164 62.7192 52.4562 40.6422 62.4912 29.1019C72.5262 17.5616 67.5086 9.53363 85.5716 8.02838C100.022 6.82418 103.969 4.18162 104.136 3.01087" stroke="#1554F7" stroke-width="6" stroke-linecap="round" stroke-linejoin="round"/>
</svg>
