<svg width="18" height="18" viewBox="0 0 18 18" fill="none" xmlns="http://www.w3.org/2000/svg">
<path d="M16.1594 4.09074C15.9484 3.87984 15.6623 3.76136 15.364 3.76136C15.0657 3.76136 14.7796 3.87984 14.5686 4.09074L8.99988 9.65949L3.43113 4.09074C3.21896 3.88581 2.93478 3.77242 2.63981 3.77498C2.34484 3.77755 2.06267 3.89586 1.85409 4.10444C1.6455 4.31303 1.52719 4.59519 1.52463 4.89016C1.52206 5.18514 1.63546 5.46931 1.84039 5.68149L8.20451 12.0456C8.41548 12.2565 8.70158 12.375 8.99988 12.375C9.29819 12.375 9.58429 12.2565 9.79526 12.0456L16.1594 5.68149C16.3703 5.47052 16.4888 5.18442 16.4888 4.88612C16.4888 4.58781 16.3703 4.30171 16.1594 4.09074Z" fill="white"/>
</svg>
