<svg width="4" height="11" viewBox="0 0 4 11" fill="none" xmlns="http://www.w3.org/2000/svg">
<path d="M2 4.01336C0.9 4.01336 0 4.61536 0 5.35115C0 6.08693 0.9 6.68893 2 6.68893C3.1 6.68893 4 6.08693 4 5.35115C4 4.61536 3.1 4.01336 2 4.01336ZM2 0C0.9 0 0 0.602004 0 1.33779C0 2.07357 0.9 2.67557 2 2.67557C3.1 2.67557 4 2.07357 4 1.33779C4 0.602004 3.1 0 2 0ZM2 8.02672C0.9 8.02672 0 8.62872 0 9.3645C0 10.1003 0.9 10.7023 2 10.7023C3.1 10.7023 4 10.1003 4 9.3645C4 8.62872 3.1 8.02672 2 8.02672Z" fill="#0C1217"/>
</svg>
