<svg width="18" height="20" viewBox="0 0 18 20" fill="none" xmlns="http://www.w3.org/2000/svg">
<path d="M9.75153 6.67246C12.1283 6.67246 13.476 8.41996 13.6718 10.5308H13.7318C14.095 10.5302 14.4547 10.6092 14.7905 10.7632C15.1262 10.9171 15.4313 11.143 15.6885 11.4281C15.9456 11.7131 16.1497 12.0516 16.2891 12.4242C16.4284 12.7969 16.5004 13.1964 16.5008 13.6C16.5003 14.0034 16.4283 14.4029 16.2888 14.7754C16.1494 15.148 15.9453 15.4864 15.6882 15.7713C15.4311 16.0563 15.126 16.2821 14.7903 16.436C14.4546 16.5899 14.0949 16.6688 13.7318 16.6683H5.77128C5.40814 16.6688 5.04846 16.5899 4.71277 16.436C4.37709 16.2821 4.07198 16.0563 3.81485 15.7713C3.55772 15.4864 3.35362 15.148 3.2142 14.7754C3.07478 14.4029 3.00277 14.0034 3.00228 13.6C3.00267 13.1964 3.07461 12.7969 3.21399 12.4242C3.35336 12.0516 3.55745 11.7131 3.81458 11.4281C4.07172 11.143 4.37687 10.9171 4.7126 10.7632C5.04833 10.6092 5.40808 10.5302 5.77128 10.5308H5.83128C6.02853 8.4058 7.37553 6.67246 9.75153 6.67246ZM3.27603 10.135C3.32812 10.2746 3.33288 10.4305 3.28944 10.5738C3.24601 10.7171 3.15731 10.838 3.03978 10.9141L2.97153 10.9516L2.27628 11.2716C2.14476 11.3312 1.99783 11.3333 1.86499 11.2775C1.73215 11.2216 1.62323 11.112 1.5601 10.9707C1.49697 10.8293 1.48429 10.6667 1.52462 10.5154C1.56495 10.3641 1.6553 10.2353 1.77753 10.155L1.84578 10.1166L2.54103 9.79746C2.67878 9.73396 2.83358 9.73385 2.97141 9.79714C3.10924 9.86042 3.21881 9.98194 3.27603 10.135ZM8.14128 6.10746L8.01228 6.1558C6.67428 6.6808 5.71578 7.82663 5.30103 9.34163L5.24853 9.54996L5.20503 9.7483L5.05053 9.7808C4.60183 9.88552 4.17617 10.0877 3.79803 10.3758C3.45428 9.71932 3.32588 8.95078 3.43467 8.20096C3.54347 7.45114 3.88275 6.76637 4.39476 6.26319C4.90677 5.76001 5.55989 5.4695 6.24296 5.44111C6.92603 5.41272 7.59686 5.64819 8.14128 6.10746ZM2.20503 6.1333L2.28378 6.16246L2.97903 6.48246C3.10962 6.54329 3.21476 6.6566 3.27346 6.79979C3.33216 6.94297 3.3401 7.10548 3.29569 7.25488C3.25128 7.40428 3.15779 7.52957 3.03389 7.60574C2.90998 7.68191 2.76478 7.70336 2.62728 7.6658L2.55003 7.6383L1.85478 7.3183C1.72418 7.25747 1.61904 7.14415 1.56034 7.00097C1.50164 6.85779 1.49371 6.69528 1.53811 6.54588C1.58252 6.39648 1.67601 6.27119 1.79992 6.19502C1.92382 6.11885 2.06902 6.0974 2.20653 6.13496L2.20503 6.1333ZM5.06628 3.64496L5.10003 3.7208L5.38803 4.4933C5.44163 4.63943 5.4435 4.80268 5.39327 4.95028C5.34303 5.09788 5.2444 5.2189 5.11718 5.28905C4.98997 5.35919 4.84358 5.37328 4.7074 5.32847C4.57123 5.28366 4.45535 5.18327 4.38303 5.04746L4.34853 4.97163L4.06128 4.19913C4.00767 4.053 4.0058 3.88975 4.05604 3.74215C4.10627 3.59455 4.2049 3.47353 4.33212 3.40338C4.45933 3.33323 4.60573 3.31915 4.7419 3.36396C4.87808 3.40877 4.99396 3.50915 5.06628 3.64496ZM8.33178 3.37913C8.4563 3.43655 8.55812 3.54176 8.61868 3.6756C8.67925 3.80943 8.69455 3.96299 8.66178 4.1083L8.63553 4.1958L8.34828 4.9683C8.29437 5.11479 8.19245 5.2331 8.0631 5.29936C7.93374 5.36562 7.78658 5.37488 7.65132 5.32527C7.51605 5.27567 7.40277 5.1709 7.33432 5.0321C7.26587 4.89331 7.24736 4.73083 7.28253 4.57746L7.30878 4.48913L7.59678 3.71746C7.62504 3.64162 7.66647 3.5727 7.7187 3.51465C7.77094 3.4566 7.83295 3.41055 7.9012 3.37913C7.96946 3.34771 8.04261 3.33154 8.11649 3.33154C8.19037 3.33154 8.26352 3.34771 8.33178 3.37913Z" fill="white"/>
</svg>
