<svg width="12" height="12" viewBox="0 0 12 12" fill="none" xmlns="http://www.w3.org/2000/svg">
<path d="M5.695 5.19494L3.75 7.13844L1.805 5.19494C1.42054 4.8103 1.15875 4.32029 1.05275 3.78688C0.946743 3.25347 1.00128 2.7006 1.20946 2.19818C1.41763 1.69576 1.77011 1.26634 2.22232 0.964223C2.67452 0.662107 3.20616 0.500854 3.75 0.500854C4.29384 0.500854 4.82548 0.662107 5.27769 0.964223C5.72989 1.26634 6.08237 1.69576 6.29055 2.19818C6.49873 2.7006 6.55326 3.25347 6.44726 3.78688C6.34125 4.32029 6.07947 4.8103 5.695 5.19494ZM3.75 4.24994C4.01522 4.24994 4.26957 4.14458 4.45711 3.95705C4.64464 3.76951 4.75 3.51516 4.75 3.24994C4.75 2.98473 4.64464 2.73037 4.45711 2.54283C4.26957 2.3553 4.01522 2.24994 3.75 2.24994C3.48478 2.24994 3.23043 2.3553 3.04289 2.54283C2.85536 2.73037 2.75 2.98473 2.75 3.24994C2.75 3.51516 2.85536 3.76951 3.04289 3.95705C3.23043 4.14458 3.48478 4.24994 3.75 4.24994ZM10.195 9.69494L8.25 11.6389L6.305 9.69444C5.92054 9.3098 5.65875 8.81979 5.55275 8.28638C5.44674 7.75297 5.50128 7.2001 5.70946 6.69768C5.91764 6.19526 6.27011 5.76584 6.72232 5.46372C7.17452 5.16161 7.70616 5.00035 8.25 5.00035C8.79385 5.00035 9.32548 5.16161 9.77769 5.46372C10.2299 5.76584 10.5824 6.19526 10.7905 6.69768C10.9987 7.2001 11.0533 7.75297 10.9473 8.28638C10.8413 8.81979 10.5795 9.3098 10.195 9.69444V9.69494ZM8.25 8.74994C8.51522 8.74994 8.76957 8.64458 8.95711 8.45705C9.14464 8.26951 9.25 8.01516 9.25 7.74994C9.25 7.48473 9.14464 7.23037 8.95711 7.04284C8.76957 6.8553 8.51522 6.74994 8.25 6.74994C7.98479 6.74994 7.73043 6.8553 7.54289 7.04284C7.35536 7.23037 7.25 7.48473 7.25 7.74994C7.25 8.01516 7.35536 8.26951 7.54289 8.45705C7.73043 8.64458 7.98479 8.74994 8.25 8.74994Z" fill="#2C2C2B"/>
</svg>
