<svg width="296" height="602" viewBox="0 0 296 602" fill="none" xmlns="http://www.w3.org/2000/svg">
<path d="M174 375.5C167.833 381.667 155.6 395 156 399C156.5 404 194 468.5 189.5 472C185 475.5 130 504.5 128.5 509.5C127 514.5 167.001 596.5 170.5 599" stroke="#3D83C3" stroke-width="6" stroke-linecap="round" stroke-linejoin="round"/>
<path d="M3.00048 278L173.5 374.5C192.834 334.834 230.1 241.2 224.5 184C217.5 112.501 208.5 33.0007 192.5 27.0007C179.7 22.2007 143.834 9.00072 127.5 3.00073" stroke="#3D83C3" stroke-width="6" stroke-linecap="round" stroke-linejoin="round"/>
<path d="M174 375L292.5 449.5" stroke="#3D83C3" stroke-width="6" stroke-linecap="round" stroke-linejoin="round"/>
<path d="M215.5 113.501L56.5004 33.5007" stroke="#3D83C3" stroke-width="6" stroke-linecap="round" stroke-linejoin="round"/>
<path d="M81.5004 215.5C92.3337 223.667 115.5 237.8 121.5 229C129 218 143 189.5 154 198.5C165 207.5 178 216 184 213C190 210 199 232 212 232.5C222.4 232.9 222.333 236 221 237.5" stroke="#3D83C3" stroke-width="6" stroke-linecap="round" stroke-linejoin="round"/>
<path d="M56.5004 34.5007L6.00048 94.0006" stroke="#3D83C3" stroke-width="6" stroke-linecap="round" stroke-linejoin="round"/>
<path d="M292 448L272 472.5C266.333 475.667 254.4 482.2 252 483" stroke="#3D83C3" stroke-width="6" stroke-linecap="round" stroke-linejoin="round"/>
</svg>
